<svg xmlns="http://www.w3.org/2000/svg" width="256" height="256" viewBox="0 0 256 256">
  <defs>
    <filter id="noise">
      <feTurbulence type="fractalNoise" baseFrequency="0.06" numOctaves="3" seed="5"/>
      <feColorMatrix type="saturate" values="0"/>
      <feBlend in="SourceGraphic" mode="multiply"/>
    </filter>
  </defs>
  <rect width="256" height="256" fill="#14140a" filter="url(#noise)"/>
  <!-- Mortar lines -->
  <g stroke="#0a0a06" stroke-width="2.5" fill="none" opacity="0.9">
    <line x1="0" y1="32" x2="256" y2="32"/>
    <line x1="0" y1="64" x2="256" y2="64"/>
    <line x1="0" y1="96" x2="256" y2="96"/>
    <line x1="0" y1="128" x2="256" y2="128"/>
    <line x1="0" y1="160" x2="256" y2="160"/>
    <line x1="0" y1="192" x2="256" y2="192"/>
    <line x1="0" y1="224" x2="256" y2="224"/>
  </g>
  <!-- Stone blocks row 1 -->
  <rect x="0" y="0" width="58" height="30" fill="#1e1e12" rx="1"/>
  <rect x="62" y="0" width="48" height="30" fill="#1a1a0e" rx="1"/>
  <rect x="114" y="0" width="70" height="30" fill="#17170d" rx="1"/>
  <rect x="188" y="0" width="36" height="30" fill="#1c1c10" rx="1"/>
  <rect x="228" y="0" width="28" height="30" fill="#202014" rx="1"/>
  <!-- Row 2 offset -->
  <rect x="-4" y="34" width="64" height="28" fill="#19190d" rx="1"/>
  <rect x="64" y="34" width="52" height="28" fill="#1d1d11" rx="1"/>
  <rect x="120" y="34" width="44" height="28" fill="#15150b" rx="1"/>
  <rect x="168" y="34" width="58" height="28" fill="#1b1b0f" rx="1"/>
  <rect x="230" y="34" width="28" height="28" fill="#1f1f13" rx="1"/>
  <!-- Row 3 -->
  <rect x="0" y="66" width="72" height="28" fill="#1c1c10" rx="1"/>
  <rect x="76" y="66" width="40" height="28" fill="#18180c" rx="1"/>
  <rect x="120" y="66" width="56" height="28" fill="#1f1f13" rx="1"/>
  <rect x="180" y="66" width="76" height="28" fill="#16160c" rx="1"/>
  <!-- Row 4 offset -->
  <rect x="-2" y="98" width="50" height="28" fill="#1a1a0e" rx="1"/>
  <rect x="52" y="98" width="68" height="28" fill="#15150b" rx="1"/>
  <rect x="124" y="98" width="48" height="28" fill="#1d1d11" rx="1"/>
  <rect x="176" y="98" width="40" height="28" fill="#131309" rx="1"/>
  <rect x="220" y="98" width="38" height="28" fill="#1c1c10" rx="1"/>
  <!-- Row 5 -->
  <rect x="0" y="130" width="44" height="28" fill="#19190d" rx="1"/>
  <rect x="48" y="130" width="56" height="28" fill="#1e1e12" rx="1"/>
  <rect x="108" y="130" width="64" height="28" fill="#17170d" rx="1"/>
  <rect x="176" y="130" width="52" height="28" fill="#1b1b0f" rx="1"/>
  <rect x="232" y="130" width="24" height="28" fill="#202014" rx="1"/>
  <!-- Row 6 offset -->
  <rect x="-6" y="162" width="58" height="28" fill="#1c1c10" rx="1"/>
  <rect x="56" y="162" width="42" height="28" fill="#14140a" rx="1"/>
  <rect x="102" y="162" width="70" height="28" fill="#1a1a0e" rx="1"/>
  <rect x="176" y="162" width="82" height="28" fill="#1d1d11" rx="1"/>
  <!-- Row 7 -->
  <rect x="0" y="194" width="54" height="30" fill="#18180c" rx="1"/>
  <rect x="58" y="194" width="46" height="30" fill="#1c1c10" rx="1"/>
  <rect x="108" y="194" width="62" height="30" fill="#15150b" rx="1"/>
  <rect x="174" y="194" width="82" height="30" fill="#1f1f13" rx="1"/>
  <!-- Row 8 -->
  <rect x="0" y="228" width="60" height="28" fill="#1a1a0e" rx="1"/>
  <rect x="64" y="228" width="48" height="28" fill="#1e1e12" rx="1"/>
  <rect x="116" y="228" width="58" height="28" fill="#17170d" rx="1"/>
  <rect x="178" y="228" width="78" height="28" fill="#1c1c10" rx="1"/>
  <!-- Crack details -->
  <g stroke="#0d0d08" stroke-width="0.7" fill="none" opacity="0.5">
    <path d="M20,4 L24,10 L18,18 L26,28"/>
    <path d="M120,70 L115,82 L122,90"/>
    <path d="M200,100 L210,108 L205,122"/>
    <path d="M60,134 L68,140 L62,150 L70,158"/>
    <path d="M160,198 L170,204 L165,218"/>
    <path d="M80,230 L90,236 L84,248"/>
  </g>
  <!-- Moss patches -->
  <g opacity="0.15">
    <ellipse cx="30" cy="110" rx="12" ry="8" fill="#1a2810"/>
    <ellipse cx="200" cy="140" rx="10" ry="6" fill="#1a2810"/>
    <ellipse cx="140" cy="50" rx="8" ry="5" fill="#1a2810"/>
    <ellipse cx="250" cy="210" rx="6" ry="4" fill="#1a2810"/>
  </g>
  <!-- Stone edge highlights -->
  <g fill="none" stroke="#2a2a18" stroke-width="0.5" opacity="0.2">
    <line x1="1" y1="1" x2="57" y2="1"/>
    <line x1="1" y1="1" x2="1" y2="29"/>
    <line x1="63" y1="1" x2="109" y2="1"/>
    <line x1="115" y1="1" x2="183" y2="1"/>
    <line x1="77" y1="67" x2="113" y2="67"/>
    <line x1="121" y1="67" x2="175" y2="67"/>
  </g>
</svg>
